# xmcd CD database file
#
# Track frame offsets:
#	150
#	12400
#	28875
#	46425
#	63525
#	77775
#	85825
#	96600
#	113325
#	120750
#	132750
#	153225
#
# Disc length: 2216 seconds
#
# Revision: 0
# Processed by: cddbd v1.4PL0 Copyright (c) Steve Scherf et al.
# Submitted via: Feurio! 1.65 - http://www.feurio.com
#
DISCID=9108a60c
DTITLE=Angela Brown - The Voice of Blues
DYEAR=1900
DGENRE=
TTITLE0=Gimme a pigfoot
TTITLE1=Oh Daddy
TTITLE2=Sugar in my bowl
TTITLE3=Woman be wise
TTITLE4=Stagger Lee
TTITLE5=God bless the child
TTITLE6=Hound Dog
TTITLE7=Tain't nobody's business
TTITLE8=Morn you mourners
TTITLE9=Buggy Ride
TTITLE10=Pallet on the floor
TTITLE11=Hold him close
EXTD=
EXTT0=
EXTT1=
EXTT2=
EXTT3=
EXTT4=
EXTT5=
EXTT6=
EXTT7=
EXTT8=
EXTT9=
EXTT10=
EXTT11=
PLAYORDER=
